<?xml version="1.0" standalone="no"?>
<!DOCTYPE svg PUBLIC "-//W3C//DTD SVG 20010904//EN"
 "http://www.w3.org/TR/2001/REC-SVG-20010904/DTD/svg10.dtd">
<svg version="1.0" xmlns="http://www.w3.org/2000/svg"
 width="900.000000pt" height="880.000000pt" viewBox="0 0 900.000000 880.000000"
 preserveAspectRatio="xMidYMid meet">

<g transform="translate(0.000000,880.000000) scale(0.100000,-0.100000)"
fill="#000000" stroke="none">
<path d="M4630 8163 c-33 -12 -61 -50 -76 -100 -18 -60 -14 -73 24 -73 15 -1
79 -12 142 -26 63 -14 147 -31 185 -39 39 -8 122 -26 185 -40 63 -14 138 -30
165 -36 178 -36 293 -60 740 -154 275 -58 538 -114 585 -126 47 -11 121 -27
165 -35 95 -18 626 -132 810 -174 72 -16 227 -50 345 -75 223 -49 280 -66 280
-86 0 -15 -67 -6 -210 26 -58 14 -130 30 -160 36 -30 6 -80 18 -111 25 -31 8
-72 14 -91 14 -18 0 -49 5 -68 10 -19 6 -159 35 -310 65 -151 31 -340 71 -420
90 -80 19 -192 43 -250 55 -104 20 -338 68 -560 116 -63 13 -149 31 -190 39
-41 7 -118 23 -170 35 -52 12 -138 30 -190 40 -52 10 -147 30 -210 44 -63 14
-216 46 -340 71 -124 25 -252 54 -285 64 -32 11 -63 17 -67 15 -4 -3 -8 -32
-8 -65 0 -55 2 -59 23 -59 12 0 110 -18 217 -40 107 -22 326 -67 485 -100 160
-32 468 -95 685 -140 439 -90 1260 -257 1445 -295 317 -64 427 -90 467 -111
18 -10 29 -11 33 -4 4 6 10 8 15 5 5 -3 48 -12 97 -21 117 -20 175 -37 187
-57 6 -9 8 -19 4 -22 -3 -3 -70 8 -149 25 -79 16 -292 59 -474 95 -181 36
-337 69 -345 72 -8 3 -28 7 -45 9 -29 3 -767 150 -2006 400 -339 68 -622 124
-628 124 -7 0 -11 -19 -11 -49 l0 -48 43 -7 c23 -4 247 -48 497 -97 250 -50
478 -95 505 -100 148 -28 1081 -212 1793 -355 833 -166 852 -171 852 -215 0
-15 -4 -17 -22 -10 -13 4 -129 29 -258 55 -245 48 -843 163 -895 172 -16 2
-61 11 -100 20 -38 8 -167 32 -285 55 -118 22 -246 47 -285 55 -38 8 -97 19
-130 25 -52 9 -257 48 -410 79 -58 12 -315 62 -590 115 -104 20 -303 58 -440
86 -138 27 -256 49 -263 49 -8 0 -12 -18 -12 -54 l0 -54 43 -7 c48 -7 326 -59
592 -110 219 -42 842 -160 980 -185 55 -10 183 -35 285 -54 102 -19 352 -67
555 -106 553 -105 577 -110 615 -120 19 -5 91 -19 160 -31 69 -11 168 -29 220
-39 52 -10 115 -21 138 -24 68 -10 112 -32 112 -55 0 -12 -2 -21 -4 -21 -2 0
-48 9 -102 21 -106 22 -389 74 -624 115 -79 13 -162 29 -185 34 -44 10 -740
138 -950 175 -71 13 -202 37 -290 54 -203 38 -461 87 -780 146 -388 72 -728
136 -747 141 -16 5 -18 -2 -18 -50 0 -55 1 -56 28 -56 25 0 227 -35 852 -150
480 -88 553 -101 745 -134 110 -19 286 -51 390 -71 105 -19 303 -56 440 -80
138 -25 293 -54 345 -64 113 -24 438 -83 640 -117 167 -28 258 -48 270 -60 14
-15 23 -74 11 -74 -6 0 -11 4 -11 9 0 5 -23 14 -50 20 -70 15 -97 12 -35 -4
65 -17 40 -18 -44 -3 -56 10 -62 13 -36 18 22 4 -13 14 -135 38 -91 18 -205
39 -255 47 -49 7 -128 21 -175 29 -131 25 -292 48 -297 43 -2 -3 27 -10 64
-16 113 -19 175 -33 170 -37 -2 -3 -44 3 -93 11 -49 9 -114 20 -144 25 -30 5
-192 33 -360 64 -168 30 -375 67 -460 81 -85 14 -225 39 -310 55 -85 16 -261
48 -390 70 -513 91 -1017 181 -1055 190 l-40 9 45 -3 c25 -2 97 -13 160 -25
464 -82 585 -104 735 -131 332 -61 756 -132 761 -127 4 3 -23 8 -351 67 -93
17 -228 42 -300 55 -71 13 -195 36 -275 50 -80 13 -179 31 -220 39 -140 26
-601 106 -611 106 -5 0 -9 -24 -9 -54 l0 -54 48 -6 c26 -4 148 -25 272 -46
635 -110 771 -134 950 -165 107 -18 337 -59 510 -89 173 -30 437 -75 585 -100
149 -25 344 -59 435 -76 91 -17 311 -55 490 -86 477 -80 440 -70 454 -128 7
-27 6 -28 -10 -15 -19 16 -160 44 -444 88 -69 11 -341 56 -605 101 -264 45
-610 103 -770 130 -470 79 -1878 320 -1897 324 -16 4 -18 -4 -18 -50 0 -52 1
-54 28 -54 15 0 257 -38 537 -85 281 -47 564 -94 630 -105 354 -57 632 -103
815 -134 113 -19 304 -51 425 -71 121 -19 324 -53 450 -75 127 -22 246 -43
265 -46 19 -3 44 -7 55 -8 33 -6 342 -56 450 -74 l100 -17 3 -55 c1 -30 -1
-50 -5 -44 -5 6 -33 16 -63 22 l-55 11 55 -4 c105 -8 17 12 -230 53 -235 39
-322 53 -762 122 -109 18 -203 30 -209 28 -7 -2 107 -23 252 -47 332 -54 541
-92 469 -85 -51 5 -342 50 -915 143 -942 153 -1138 186 -1119 189 12 2 104
-10 205 -27 208 -34 296 -45 289 -38 -5 5 -130 26 -470 81 -242 40 -1117 183
-1167 191 l-33 6 0 -54 c0 -58 7 -67 56 -67 14 0 163 -23 332 -50 271 -45 510
-83 682 -110 448 -69 594 -92 640 -100 30 -6 332 -53 670 -105 338 -53 710
-111 825 -130 116 -19 284 -46 374 -60 90 -13 169 -29 175 -35 7 -5 10 -25 8
-45 -3 -29 -6 -33 -16 -21 -7 9 -47 19 -106 26 -52 6 -114 16 -137 21 -23 5
-107 18 -185 29 -79 11 -183 27 -233 35 -49 8 -142 22 -205 30 -63 9 -151 22
-195 30 -44 8 -127 21 -185 30 -58 9 -190 29 -295 45 -104 16 -282 43 -395 60
-113 16 -261 39 -330 50 -225 36 -1469 230 -1477 230 -2 0 -3 -27 -3 -59 l0
-60 58 -6 c31 -4 107 -16 167 -27 61 -11 118 -19 127 -19 10 0 20 -5 23 -10 4
-5 11 -7 16 -4 5 3 71 -3 146 -15 202 -31 370 -56 526 -79 76 -12 146 -25 157
-31 10 -5 25 -8 33 -5 13 6 306 -35 397 -55 25 -5 70 -12 100 -15 30 -3 80 -9
110 -15 30 -5 177 -27 325 -50 149 -22 315 -46 370 -55 55 -8 192 -29 305 -45
113 -17 225 -34 250 -40 25 -5 83 -14 130 -20 181 -23 456 -67 468 -74 29 -18
2 -29 -72 -31 -52 -2 -74 1 -65 7 9 6 -3 8 -36 4 -34 -3 -44 -2 -30 4 14 6 2
8 -35 5 -37 -4 -48 -2 -35 4 16 7 7 10 -40 16 -32 4 -91 9 -130 10 -38 1 -86
5 -105 8 -19 4 -56 9 -83 13 -26 3 -45 9 -43 12 2 4 -34 8 -81 8 -57 1 -88 5
-93 14 -4 7 -12 10 -18 6 -6 -3 -71 3 -144 14 -73 12 -182 27 -243 35 -60 7
-191 25 -290 40 -99 14 -229 33 -290 41 -60 8 -150 21 -199 30 -49 8 -166 26
-260 39 -218 31 -534 77 -751 110 -93 14 -222 32 -285 41 -143 19 -342 52
-348 59 -3 3 8 5 24 6 29 1 29 1 4 9 -14 4 -33 8 -44 9 -15 1 -16 -2 -6 -14 9
-10 9 -15 1 -15 -7 0 -11 -25 -11 -70 0 -38 4 -70 8 -70 11 0 290 -38 762
-105 212 -30 518 -73 680 -95 813 -113 1555 -222 1569 -231 16 -9 -97 -3 -129
8 -8 2 -40 7 -70 9 -30 3 -147 18 -260 35 -113 16 -213 30 -223 30 -39 1
-2242 314 -2279 324 -10 3 -27 8 -38 11 -20 5 -20 1 -20 -1005 l0 -1011 168
-1 c300 -1 384 -5 392 -20 7 -10 11 -10 24 0 14 12 16 -1 16 -138 l0 -151
-137 6 c-76 3 -154 7 -173 8 -179 14 -227 20 -242 27 -11 6 -22 4 -32 -7 -40
-39 -28 -41 267 -50 155 -5 290 -7 300 -6 15 2 17 -10 17 -112 0 -104 -2 -114
-17 -110 -10 2 -61 6 -113 8 -52 2 -111 7 -130 10 -19 2 -57 8 -85 11 -68 8
-78 10 -90 17 -5 3 -29 5 -52 3 -33 -2 -47 3 -65 22 -16 18 -19 26 -10 32 9 6
9 13 -1 34 -18 40 -27 33 -27 -22 0 -26 -3 -69 -6 -95 l-7 -46 281 0 c168 0
283 -4 287 -10 3 -5 12 -7 20 -3 13 4 15 -15 15 -126 0 -81 -4 -131 -10 -131
-5 0 -10 5 -10 10 0 6 -3 10 -7 10 -5 0 -9 -17 -11 -37 -1 -21 -6 -41 -10 -45
-9 -9 -105 8 -136 24 -13 7 -21 6 -26 -2 -9 -15 -80 -5 -80 10 0 13 17 13 25
0 3 -6 14 -10 23 -10 15 1 14 3 -3 18 -11 9 -26 29 -32 45 -11 24 -10 27 5 28
10 0 12 3 5 6 -7 2 -13 11 -13 19 0 8 -10 14 -24 14 -13 0 -32 3 -41 6 -11 5
-18 0 -22 -14 -5 -20 -6 -21 -29 -4 -27 19 -31 42 -9 42 15 0 21 21 9 33 -8 8
-46 -12 -40 -21 2 -4 -7 -12 -20 -19 -23 -11 -35 -1 -14 12 15 10 12 22 -12
45 -12 11 -18 20 -12 20 5 0 0 6 -10 12 -15 8 -21 8 -24 -1 -2 -7 -8 -8 -15
-3 -21 16 -44 20 -44 9 0 -7 -3 -81 -8 -164 l-7 -153 281 0 281 0 0 -30 c0
-26 -4 -30 -27 -31 -16 -1 -32 0 -38 2 -5 2 -30 4 -55 6 -25 1 -67 4 -95 7
-27 3 -115 7 -194 11 l-144 6 5 -64 c9 -108 47 -159 140 -189 37 -12 492 -21
611 -12 42 3 77 10 77 15 0 5 -7 9 -15 9 -8 0 -15 6 -15 14 0 18 85 26 296 26
165 0 174 -1 174 -19 0 -26 -22 -32 -109 -30 -39 1 -75 -1 -78 -5 -4 -3 153
-6 347 -6 360 0 458 10 192 20 -129 4 -147 7 -150 23 -3 16 13 17 222 17 217
0 226 -1 226 -20 0 -10 -7 -23 -16 -28 -20 -11 1202 -14 1618 -4 311 8 313 8
352 87 23 45 23 133 6 795 -9 360 -20 842 -51 2160 -20 901 -26 1061 -43 1116
-20 63 -63 108 -125 129 -25 9 -221 56 -436 105 -214 49 -676 154 -1025 234
-1444 329 -1869 426 -1938 441 -73 15 -153 19 -182 8z m897 -449 c-3 -3 -12
-4 -19 -1 -8 3 -5 6 6 6 11 1 17 -2 13 -5z m40 -10 c-3 -3 -12 -4 -19 -1 -8 3
-5 6 6 6 11 1 17 -2 13 -5z m-787 -44 c11 -8 7 -9 -15 -4 -37 8 -45 14 -19 14
10 0 26 -5 34 -10z m83 -17 c-7 -2 -21 -2 -30 0 -10 3 -4 5 12 5 17 0 24 -2
18 -5z m82 -13 c13 -6 15 -9 5 -9 -8 0 -22 4 -30 9 -18 12 -2 12 25 0z m118
-27 c-7 -2 -19 -2 -25 0 -7 3 -2 5 12 5 14 0 19 -2 13 -5z m50 -10 c-7 -2 -19
-2 -25 0 -7 3 -2 5 12 5 14 0 19 -2 13 -5z m-476 -39 c-3 -3 -12 -4 -19 -1 -8
3 -5 6 6 6 11 1 17 -2 13 -5z m56 -11 c-7 -2 -19 -2 -25 0 -7 3 -2 5 12 5 14
0 19 -2 13 -5z m100 -20 c-7 -2 -19 -2 -25 0 -7 3 -2 5 12 5 14 0 19 -2 13 -5z
m44 -9 c-3 -3 -12 -4 -19 -1 -8 3 -5 6 6 6 11 1 17 -2 13 -5z m208 -35 c88
-16 187 -35 220 -41 33 -6 55 -13 49 -15 -12 -4 -424 74 -432 82 -7 7 -14 8
163 -26z m318 -66 c-7 -2 -19 -2 -25 0 -7 3 -2 5 12 5 14 0 19 -2 13 -5z m54
-9 c-3 -3 -12 -4 -19 -1 -8 3 -5 6 6 6 11 1 17 -2 13 -5z m40 -10 c-3 -3 -12
-4 -19 -1 -8 3 -5 6 6 6 11 1 17 -2 13 -5z m307 -53 c257 -51 247 -49 216 -49
-31 -1 -463 85 -436 87 11 0 110 -17 220 -38z m273 -57 c-3 -3 -12 -4 -19 -1
-8 3 -5 6 6 6 11 1 17 -2 13 -5z m-879 -39 c4 -4 -2 -5 -13 -2 -11 3 -41 9
-68 13 -26 3 -49 10 -52 14 -6 10 123 -14 133 -25z m979 19 c-3 -3 -12 -4 -19
-1 -8 3 -5 6 6 6 11 1 17 -2 13 -5z m56 -11 c-7 -2 -19 -2 -25 0 -7 3 -2 5 12
5 14 0 19 -2 13 -5z m50 -10 c-7 -2 -19 -2 -25 0 -7 3 -2 5 12 5 14 0 19 -2
13 -5z m-996 -9 c-3 -3 -12 -4 -19 -1 -8 3 -5 6 6 6 11 1 17 -2 13 -5z m1046
-1 c-7 -2 -19 -2 -25 0 -7 3 -2 5 12 5 14 0 19 -2 13 -5z m-883 -29 l55 -14
-50 5 c-27 3 -75 12 -105 20 l-55 14 50 -5 c28 -3 75 -12 105 -20z m943 19
c-7 -2 -21 -2 -30 0 -10 3 -4 5 12 5 17 0 24 -2 18 -5z m-1760 -10 c-7 -2 -19
-2 -25 0 -7 3 -2 5 12 5 14 0 19 -2 13 -5z m984 -9 c-3 -3 -12 -4 -19 -1 -8 3
-5 6 6 6 11 1 17 -2 13 -5z m870 0 c-3 -3 -12 -4 -19 -1 -8 3 -5 6 6 6 11 1
17 -2 13 -5z m-830 -10 c-3 -3 -12 -4 -19 -1 -8 3 -5 6 6 6 11 1 17 -2 13 -5z
m886 -1 c-7 -2 -19 -2 -25 0 -7 3 -2 5 12 5 14 0 19 -2 13 -5z m-725 -24 c64
-11 119 -23 122 -26 7 -6 -63 4 -175 27 -125 25 -89 24 53 -1z m823 3 c-13 -2
-27 0 -32 5 -6 6 3 7 23 4 28 -4 29 -6 9 -9z m84 -12 c25 -11 -1 -11 -35 0
-20 6 -21 8 -5 8 11 0 29 -3 40 -8z m-1018 -6 c-3 -3 -12 -4 -19 -1 -8 3 -5 6
6 6 11 1 17 -2 13 -5z m63 -10 c0 -2 -12 -4 -26 -4 -14 0 -23 4 -20 9 6 8 46
4 46 -5z m90 -14 c12 -8 10 -10 -10 -9 -14 0 -34 4 -45 9 -17 7 -16 9 10 9 17
0 37 -4 45 -9z m123 3 c-7 -2 -19 -2 -25 0 -7 3 -2 5 12 5 14 0 19 -2 13 -5z
m54 -9 c-3 -3 -12 -4 -19 -1 -8 3 -5 6 6 6 11 1 17 -2 13 -5z m50 -10 c-3 -3
-12 -4 -19 -1 -8 3 -5 6 6 6 11 1 17 -2 13 -5z m-47 -19 l55 -15 -49 6 c-27 3
-58 9 -70 14 -34 14 3 11 64 -5z m113 8 c-7 -2 -19 -2 -25 0 -7 3 -2 5 12 5
14 0 19 -2 13 -5z m860 0 c-7 -2 -19 -2 -25 0 -7 3 -2 5 12 5 14 0 19 -2 13
-5z m-773 -13 c20 -6 21 -8 5 -8 -11 0 -33 4 -50 8 -27 7 -27 8 -5 8 14 0 36
-4 50 -8z m817 4 c-3 -3 -12 -4 -19 -1 -8 3 -5 6 6 6 11 1 17 -2 13 -5z m46
-11 c-7 -2 -19 -2 -25 0 -7 3 -2 5 12 5 14 0 19 -2 13 -5z m-927 -21 c-10 -2
-22 0 -28 6 -6 6 0 7 19 4 21 -5 23 -7 9 -10z m169 8 c27 -7 27 -8 5 -8 -14 0
-38 4 -55 8 -27 7 -27 8 -5 8 14 0 39 -4 55 -8z m-65 -20 c13 -8 13 -10 -2
-10 -9 0 -20 5 -23 10 -8 13 5 13 25 0z m133 3 c-7 -2 -19 -2 -25 0 -7 3 -2 5
12 5 14 0 19 -2 13 -5z m22 -35 c7 -7 2 -9 -15 -5 -14 3 -42 9 -62 12 -21 4
-38 11 -38 15 0 10 103 -9 115 -22z m82 16 c-3 -3 -12 -4 -19 -1 -8 3 -5 6 6
6 11 1 17 -2 13 -5z m-40 -20 c-3 -3 -12 -4 -19 -1 -8 3 -5 6 6 6 11 1 17 -2
13 -5z m56 -11 c-7 -2 -19 -2 -25 0 -7 3 -2 5 12 5 14 0 19 -2 13 -5z m-1812
-21 c-13 -2 -27 0 -32 5 -6 6 3 7 23 4 28 -4 29 -6 9 -9z m524 -78 c88 -14
162 -28 164 -30 17 -16 -340 39 -368 57 -12 8 -9 9 14 5 17 -3 102 -17 190
-32z m208 -41 c-7 -2 -19 -2 -25 0 -7 3 -2 5 12 5 14 0 19 -2 13 -5z m-708
-17 c39 -8 57 -14 40 -14 -16 -1 -59 5 -95 12 -36 8 -54 14 -40 14 14 1 57 -5
95 -12z m800 4 c18 -8 18 -9 -5 -8 -14 0 -36 4 -50 8 -24 8 -24 8 5 8 17 0 39
-3 50 -8z m-478 -55 c289 -46 345 -57 340 -62 -5 -4 -579 87 -586 93 -9 8 36
3 246 -31z m1192 -61 c8 -2 11 -7 8 -10 -7 -7 -77 7 -77 16 0 7 39 4 69 -6z
m-679 -24 c57 -13 1 -10 -80 5 -73 13 -74 14 -15 9 33 -3 76 -9 95 -14z m740
10 c0 -5 -6 -10 -14 -10 -8 0 -18 5 -21 10 -3 6 3 10 14 10 12 0 21 -4 21 -10z
m-657 -27 c-7 -2 -21 -2 -30 0 -10 3 -4 5 12 5 17 0 24 -2 18 -5z m1894 1 c-3
-3 -12 -4 -19 -1 -8 3 -5 6 6 6 11 1 17 -2 13 -5z m-1834 -11 c-7 -2 -21 -2
-30 0 -10 3 -4 5 12 5 17 0 24 -2 18 -5z m1942 -3 c27 -7 27 -8 5 -8 -14 0
-38 4 -55 8 -27 7 -27 8 -5 8 14 0 39 -4 55 -8z m-2998 -16 c-3 -3 -12 -4 -19
-1 -8 3 -5 6 6 6 11 1 17 -2 13 -5z m3076 -1 c-7 -2 -21 -2 -30 0 -10 3 -4 5
12 5 17 0 24 -2 18 -5z m-3010 -10 c-7 -2 -21 -2 -30 0 -10 3 -4 5 12 5 17 0
24 -2 18 -5z m3060 0 c-7 -2 -19 -2 -25 0 -7 3 -2 5 12 5 14 0 19 -2 13 -5z
m-2985 -10 c-10 -2 -26 -2 -35 0 -10 3 -2 5 17 5 19 0 27 -2 18 -5z m177 -23
c27 -7 28 -8 5 -8 -14 -1 -43 3 -65 7 l-40 9 35 0 c19 0 49 -4 65 -8z m3032
-6 c-3 -3 -12 -4 -19 -1 -8 3 -5 6 6 6 11 1 17 -2 13 -5z m-2912 -13 c34 -7
35 -9 10 -9 -16 0 -43 4 -60 8 -42 11 -1 11 50 1z m2982 3 c-3 -3 -12 -4 -19
-1 -8 3 -5 6 6 6 11 1 17 -2 13 -5z m-2698 -46 c79 -12 139 -24 133 -26 -14
-4 -365 48 -372 55 -6 7 50 0 239 -29z m194 -35 c-7 -2 -21 -2 -30 0 -10 3 -4
5 12 5 17 0 24 -2 18 -5z m70 -10 c-7 -2 -21 -2 -30 0 -10 3 -4 5 12 5 17 0
24 -2 18 -5z m307 -43 c140 -22 289 -45 330 -52 41 -7 68 -13 59 -15 -16 -4
-661 95 -668 103 -8 8 24 4 279 -36z m515 -80 c13 -6 -2 -7 -40 -3 -33 3 -62
7 -64 9 -9 8 85 2 104 -6z m215 -35 l65 -14 -59 5 c-32 3 -89 12 -125 20 l-66
14 60 -6 c33 -3 89 -11 125 -19z m133 -22 c-7 -2 -21 -2 -30 0 -10 3 -4 5 12
5 17 0 24 -2 18 -5z m1070 0 c-7 -2 -21 -2 -30 0 -10 3 -4 5 12 5 17 0 24 -2
18 -5z m-1010 -10 c-7 -2 -21 -2 -30 0 -10 3 -4 5 12 5 17 0 24 -2 18 -5z
m1070 0 c-7 -2 -19 -2 -25 0 -7 3 -2 5 12 5 14 0 19 -2 13 -5z m-968 -12 c26
-6 31 -9 15 -9 -14 -1 -43 3 -65 7 -26 6 -31 9 -15 9 14 1 43 -3 65 -7z m1032
3 c-3 -3 -12 -4 -19 -1 -8 3 -5 6 6 6 11 1 17 -2 13 -5z m60 -10 c-3 -3 -12
-4 -19 -1 -8 3 -5 6 6 6 11 1 17 -2 13 -5z m-999 -11 c-10 -2 -26 -2 -35 0
-10 3 -2 5 17 5 19 0 27 -2 18 -5z m1055 0 c-7 -2 -19 -2 -25 0 -7 3 -2 5 12
5 14 0 19 -2 13 -5z m-818 -33 c105 -16 196 -30 204 -30 8 0 12 -3 8 -6 -6 -6
-418 54 -426 62 -8 8 24 4 214 -26z m888 23 c-7 -2 -21 -2 -30 0 -10 3 -4 5
12 5 17 0 24 -2 18 -5z m-540 -80 c-7 -2 -21 -2 -30 0 -10 3 -4 5 12 5 17 0
24 -2 18 -5z m64 -9 c-3 -3 -12 -4 -19 -1 -8 3 -5 6 6 6 11 1 17 -2 13 -5z
m46 -11 c-7 -2 -19 -2 -25 0 -7 3 -2 5 12 5 14 0 19 -2 13 -5z m-3 -273 c63
-10 105 -18 94 -19 -45 -2 -229 21 -238 30 -13 12 7 11 144 -11z m-1655 -20
c3 -5 12 -7 19 -4 11 4 316 -69 335 -80 4 -3 8 -64 9 -136 l3 -132 -53 6 -53
5 50 -16 c28 -9 52 -18 54 -20 5 -4 1 -206 -4 -211 -1 -2 -40 4 -85 12 -45 9
-90 16 -99 16 -36 0 15 -19 84 -31 127 -21 116 -3 114 -198 -1 -93 1 -173 3
-177 3 -5 2 -49 -1 -99 l-6 -90 -60 2 -60 1 57 -11 c31 -7 60 -16 65 -20 4 -5
9 -87 10 -183 l2 -174 -33 0 c-43 0 -337 29 -353 35 -7 2 -13 14 -13 26 0 15
-4 19 -16 15 -8 -3 -28 -3 -42 1 -24 7 -22 8 18 13 l44 5 -3 135 c-1 74 -5
138 -8 142 -2 5 -14 8 -26 8 -12 0 -29 5 -37 10 -11 7 -5 8 18 4 25 -5 36 -2
47 12 8 11 12 26 10 34 -4 14 -7 175 -5 210 1 8 -1 214 -5 458 -6 419 -4 471
20 432z m663 -157 c123 -30 152 -40 152 -54 0 -23 -34 -28 -89 -12 -66 19 -81
17 -51 -9 14 -11 24 -24 23 -28 -1 -5 4 -14 12 -20 12 -10 17 -7 26 16 8 21
13 25 17 14 3 -8 11 -21 19 -28 7 -7 13 -20 13 -28 0 -8 7 -14 15 -14 14 0 16
-7 19 -87 1 -27 -1 -28 -39 -25 -41 3 -157 25 -232 44 l-42 10 -3 129 c-2 71
-1 129 2 129 3 0 74 -17 158 -37z m6 -284 c77 -16 148 -35 158 -40 15 -8 18
-23 18 -98 l0 -88 -40 2 c-33 2 -242 39 -287 51 -9 2 -13 26 -13 72 0 38 -3
84 -6 101 -8 40 -8 40 170 0z m1 -229 c66 -12 132 -26 147 -32 l27 -10 3 -140
c2 -116 0 -141 -12 -148 -22 -11 -318 32 -324 47 -4 9 -9 261 -6 307 0 4 10 6
23 3 12 -3 76 -15 142 -27z m8 -336 c38 -8 77 -14 87 -14 10 0 31 -5 47 -12
15 -6 31 -11 36 -10 4 1 7 -37 7 -85 0 -61 -3 -83 -10 -73 -6 9 -10 10 -10 3
0 -18 -34 -24 -81 -14 -24 5 -86 15 -138 22 -109 16 -111 17 -111 135 l0 75
53 -7 c28 -3 83 -13 120 -20z m-8 -209 c71 -9 142 -21 158 -27 l27 -10 0 -129
0 -129 -47 0 c-73 1 -274 27 -283 36 -4 5 -10 69 -12 142 -3 112 -1 132 11
132 8 0 74 -7 146 -15z m50 -301 c66 -8 125 -20 132 -27 7 -7 10 -22 7 -34 -5
-17 -12 -21 -37 -17 -18 2 -93 11 -166 19 -74 9 -136 17 -137 18 -3 3 -6 40
-5 54 1 9 14 11 44 8 23 -3 96 -12 162 -21z m-1478 -90 c4 -12 8 -13 14 -3 6
10 45 10 201 1 106 -7 211 -15 233 -18 l41 -6 3 -87 c2 -47 4 -106 5 -131 l1
-45 -200 0 c-110 1 -228 2 -262 5 l-62 4 -3 140 c-2 78 -2 144 0 149 6 13 22
8 29 -9z m966 -49 l177 -8 0 -73 c0 -77 16 -102 23 -36 2 20 4 -6 5 -58 l2
-95 -52 -3 c-29 -2 -118 2 -198 8 -80 6 -163 12 -185 13 l-40 2 0 65 c-1 103
2 111 41 108 20 -1 34 -7 34 -15 0 -7 -4 -13 -9 -13 -18 0 -6 -46 12 -47 13
-1 16 3 12 18 -5 14 -2 19 11 19 14 0 14 3 4 15 -17 20 -4 32 18 18 14 -8 23
-6 41 8 27 22 57 25 64 7 4 -10 7 -10 18 0 16 15 49 16 49 1 0 -5 5 -7 10 -4
39 24 -13 35 -215 45 -63 3 -99 15 -90 30 3 5 24 7 48 5 23 -2 122 -6 220 -10z
m684 -1 c-3 -3 -12 -4 -19 -1 -8 3 -5 6 6 6 11 1 17 -2 13 -5z m-117 -12 c0
-4 17 -6 37 -4 34 4 249 -13 301 -24 21 -4 22 -8 22 -123 l0 -118 -137 -6
c-76 -4 -158 -2 -183 2 -25 5 -47 10 -50 10 -6 1 -19 253 -13 264 6 9 23 9 23
-1z m620 -59 c12 -11 -30 -23 -70 -21 -33 2 -46 8 -48 20 -3 15 4 16 55 11 32
-3 60 -8 63 -10z m-1930 -188 c118 -3 230 -9 248 -12 l33 -5 -3 -101 -3 -101
-230 1 c-126 1 -243 3 -260 5 l-30 5 -3 112 c-2 104 -1 112 15 108 10 -3 115
-8 233 -12z m883 -36 c79 -2 78 0 74 -124 l-2 -79 -68 -4 c-37 -2 -114 2 -170
9 -102 12 -119 12 -189 6 -21 -2 -42 -1 -46 2 -12 8 -23 199 -11 203 5 2 84 0
176 -4 93 -3 198 -7 236 -9z m725 -27 c34 -4 62 -10 62 -14 0 -5 0 -45 -1 -90
0 -46 -3 -77 -6 -70 -3 9 -9 10 -17 3 -15 -13 -331 -19 -343 -8 -11 11 -20
196 -10 200 10 3 230 -12 315 -21z m302 -31 c-8 -5 -31 -12 -51 -16 -28 -5
-38 -3 -42 9 -5 13 3 16 51 16 37 -1 52 -4 42 -9z m-1987 -155 c78 -2 190 -5
250 -5 l107 -1 0 -154 0 -154 -27 -7 c-40 -10 -318 -6 -391 5 -35 6 -72 8 -82
5 -23 -7 -27 17 -29 189 -2 124 -1 138 14 132 9 -3 80 -8 158 -10z m1001 -23
c4 -5 13 -8 19 -8 9 0 13 -44 15 -148 2 -100 -1 -146 -8 -142 -5 3 -16 3 -22
-2 -15 -9 -440 -4 -450 5 -3 4 -8 73 -10 155 l-3 147 226 0 c124 0 229 -3 233
-7z m609 -19 c144 -6 148 -7 145 -27 -2 -12 -16 -28 -31 -35 -26 -13 -27 -15
-13 -31 20 -22 11 -67 -10 -50 -11 9 -14 8 -14 -6 0 -13 -6 -16 -24 -11 -23 6
-24 4 -19 -28 4 -27 1 -38 -16 -52 -11 -10 -21 -24 -21 -32 0 -10 -25 -13
-115 -11 l-115 2 0 96 c0 53 -3 119 -6 148 l-7 52 49 -4 c27 -3 116 -8 197
-11z m322 -24 c-3 -5 -13 -10 -21 -10 -8 0 -14 5 -14 10 0 6 9 10 21 10 11 0
17 -4 14 -10z m-2560 -170 c-10 -11 -22 -17 -27 -14 -12 8 11 34 30 34 13 0
12 -3 -3 -20z m2329 -8 c2 -4 1 -14 -3 -20 -10 -16 -41 -5 -41 14 0 15 35 20
44 6z m-2024 -36 c0 -3 -4 -8 -10 -11 -5 -3 -10 -1 -10 4 0 6 5 11 10 11 6 0
10 -2 10 -4z m184 -91 c3 -8 1 -28 -5 -43 l-11 -27 -10 28 c-15 42 10 83 26
42z m-184 -22 c-1 -24 -2 -26 -11 -10 -5 9 -7 22 -4 27 10 17 15 11 15 -17z
m682 20 c8 -15 -14 -155 -22 -143 -6 9 -12 9 -29 -2 -18 -11 -23 -11 -30 1 -6
9 -16 11 -27 7 -40 -16 -67 -16 -84 -1 -14 12 -27 14 -56 9 -22 -5 -42 -7 -46
-6 -5 1 -8 -4 -8 -12 0 -11 -11 -14 -47 -10 -26 3 -50 8 -53 13 -3 4 -18 11
-33 15 -22 5 -27 11 -22 26 4 12 0 26 -9 36 -9 8 -16 29 -16 45 l0 29 239 0
c132 0 241 -3 243 -7z m651 -7 c7 -19 -3 -56 -15 -56 -6 0 -6 -5 1 -14 14 -16
4 -46 -15 -46 -7 0 -18 -8 -23 -17 -9 -16 -12 -16 -22 -3 -8 11 -12 12 -16 3
-7 -18 -38 -16 -57 3 -10 10 -24 13 -37 9 -18 -6 -21 -4 -16 9 8 19 -1 46 -15
46 -6 0 -8 -11 -6 -25 3 -14 2 -28 -2 -30 -4 -3 -11 11 -14 30 -7 37 -26 48
-26 15 0 -16 -7 -20 -31 -20 -26 0 -31 3 -26 20 3 13 0 20 -9 20 -8 0 -15 -11
-15 -27 -2 -24 -2 -25 -6 -5 -3 15 -11 22 -29 22 -14 0 -24 -6 -24 -14 0 -7
-7 -19 -15 -26 -12 -10 -15 -10 -15 1 0 11 -2 11 -10 -1 -7 -12 -10 -8 -10 15
0 17 -3 47 -6 68 l-7 37 231 0 c188 0 231 -3 235 -14z m387 -29 c0 -24 -3 -28
-10 -17 -13 20 -13 63 0 55 6 -3 10 -21 10 -38z m-363 -14 c-3 -10 -5 -2 -5
17 0 19 2 27 5 18 2 -10 2 -26 0 -35z m713 37 c24 -15 0 -30 -50 -31 -25 -1
-63 -6 -85 -11 -22 -6 -41 -10 -42 -9 -8 2 -53 -52 -53 -64 0 -19 -24 -19 -40
0 -7 8 -19 15 -26 15 -21 0 -17 20 4 21 16 1 16 2 -1 6 -9 2 -15 9 -12 14 4 5
-1 9 -9 9 -11 0 -16 9 -16 30 l0 30 158 0 c86 0 164 -5 172 -10z m-1890 -80
c0 -5 -4 -10 -10 -10 -5 0 -10 5 -10 10 0 6 5 10 10 10 6 0 10 -4 10 -10z
m-236 -126 c33 -13 14 -40 -25 -36 -3 0 -32 4 -65 8 -32 3 -71 6 -86 6 -15 -1
-29 2 -32 6 -3 4 30 9 72 11 42 1 79 4 81 7 6 6 37 5 55 -2z m236 -19 c0 -14
-4 -25 -10 -25 -5 0 -10 11 -10 25 0 14 5 25 10 25 6 0 10 -11 10 -25z m1540
3 c0 -18 -2 -20 -9 -8 -6 8 -7 18 -5 22 9 14 14 9 14 -14z m215 12 l50 -7 -40
-2 c-22 -2 -49 -5 -60 -8 -38 -11 -128 -8 -132 4 -7 20 93 27 182 13z m-2232
-7 c-7 -2 -19 -2 -25 0 -7 3 -2 5 12 5 14 0 19 -2 13 -5z"/>
<path d="M6075 5600 c3 -5 11 -10 16 -10 6 0 7 5 4 10 -3 6 -11 10 -16 10 -6
0 -7 -4 -4 -10z"/>
<path d="M6265 5560 c11 -5 29 -8 40 -8 16 0 15 2 -5 8 -34 11 -60 11 -35 0z"/>
<path d="M6075 5350 c3 -5 13 -10 21 -10 8 0 12 5 9 10 -3 6 -13 10 -21 10 -8
0 -12 -4 -9 -10z"/>
<path d="M6086 5001 c-4 -5 -2 -12 3 -15 5 -4 12 -2 15 3 4 5 2 12 -3 15 -5 4
-12 2 -15 -3z"/>
<path d="M6087 4787 c-3 -9 -2 -19 4 -23 15 -9 18 -2 9 20 -6 17 -7 18 -13 3z"/>
<path d="M6640 5686 c0 -2 9 -6 20 -9 11 -3 18 -1 14 4 -5 9 -34 13 -34 5z"/>
<path d="M5322 4140 c0 -14 2 -19 5 -12 2 6 2 18 0 25 -3 6 -5 1 -5 -13z"/>
<path d="M6155 4109 c-4 -6 -5 -12 -2 -15 2 -3 7 2 10 11 7 17 1 20 -8 4z"/>
<path d="M5690 3250 c0 -5 5 -10 10 -10 6 0 10 5 10 10 0 6 -4 10 -10 10 -5 0
-10 -4 -10 -10z"/>
<path d="M6333 6913 c9 -2 23 -2 30 0 6 3 -1 5 -18 5 -16 0 -22 -2 -12 -5z"/>
<path d="M6380 6907 c3 -3 84 -19 180 -36 96 -16 238 -41 314 -55 145 -27 220
-34 106 -10 -86 18 -491 90 -555 99 -27 4 -48 5 -45 2z"/>
<path d="M7080 6781 c58 -14 118 -22 95 -12 -11 5 -45 11 -75 14 -42 5 -46 4
-20 -2z"/>
<path d="M6345 6586 c219 -41 644 -108 656 -104 6 2 -146 30 -337 61 -367 60
-539 83 -319 43z"/>
<path d="M4988 6453 c7 -3 16 -2 19 1 4 3 -2 6 -13 5 -11 0 -14 -3 -6 -6z"/>
<path d="M1455 5813 c-128 -65 -159 -86 -215 -143 -133 -135 -217 -330 -480
-1120 -117 -350 -144 -445 -134 -462 9 -15 84 -3 144 23 33 14 71 44 111 86
33 36 93 92 132 126 225 189 317 323 338 490 14 110 212 849 270 1005 10 29
19 57 19 62 0 21 -41 6 -185 -67z"/>
<path d="M548 5290 c-57 -17 -97 -51 -122 -102 -24 -47 -26 -63 -26 -170 l0
-117 -50 -22 c-108 -46 -134 -113 -134 -349 -1 -135 1 -148 24 -195 15 -30 43
-63 70 -84 l45 -34 -3 -116 c-5 -140 7 -188 55 -242 43 -47 76 -66 132 -75 26
-4 41 -12 41 -21 0 -20 28 -74 53 -100 47 -51 72 -19 86 110 9 77 1 213 -14
238 -22 35 -89 -24 -116 -103 -16 -49 -20 -53 -46 -49 -103 12 -139 102 -117
289 l7 52 47 0 c54 0 107 30 128 73 19 40 35 256 28 386 -8 163 -35 207 -142
235 l-49 12 4 115 c3 128 16 167 65 202 27 19 43 22 136 22 58 0 146 -2 195
-5 86 -4 90 -3 93 17 3 19 -3 21 -95 27 -210 14 -269 15 -295 6z m-23 -574 c4
-29 5 -62 3 -72 -4 -16 -7 -14 -17 11 -7 17 -19 43 -27 59 -20 42 -18 56 10
56 22 0 25 -5 31 -54z m-70 -70 c24 -54 41 -123 36 -141 -1 -5 -8 -32 -15 -58
-7 -26 -16 -48 -22 -47 -5 0 -9 4 -9 9 0 16 -15 25 -15 10 -1 -10 -4 -8 -11 4
-11 19 -22 255 -12 270 11 18 26 3 48 -47z m52 -238 c-3 -8 -6 -5 -6 6 -1 11
2 17 5 13 3 -3 4 -12 1 -19z m-64 -75 c-7 -2 -19 -2 -25 0 -7 3 -2 5 12 5 14
0 19 -2 13 -5z"/>
<path d="M4552 4250 c0 -14 2 -19 5 -12 2 6 2 18 0 25 -3 6 -5 1 -5 -13z"/>
<path d="M4552 4198 c6 -18 28 -21 28 -4 0 9 -7 16 -16 16 -9 0 -14 -5 -12
-12z"/>
<path d="M5102 4170 c0 -14 2 -19 5 -12 2 6 2 18 0 25 -3 6 -5 1 -5 -13z"/>
<path d="M4552 4140 c0 -19 2 -27 5 -17 2 9 2 25 0 35 -3 9 -5 1 -5 -18z"/>
<path d="M1272 3968 c-7 -7 -12 -17 -12 -24 0 -6 -10 -24 -22 -40 -19 -24 -23
-41 -23 -110 0 -57 4 -86 15 -99 8 -10 19 -32 25 -48 13 -39 30 -45 46 -15 14
26 25 257 15 312 -7 37 -23 45 -44 24z"/>
<path d="M4680 3661 c0 -12 29 -23 41 -15 5 3 7 10 4 15 -8 12 -45 12 -45 0z"/>
<path d="M5448 3083 c6 -2 18 -2 25 0 6 3 1 5 -13 5 -14 0 -19 -2 -12 -5z"/>
<path d="M1008 3004 c-40 -21 -34 -34 10 -22 23 7 89 8 179 3 147 -7 183 -3
183 19 0 21 -335 21 -372 0z"/>
<path d="M506 2922 c-4 -13 -5 -26 -2 -29 10 -11 18 4 14 29 l-4 23 -8 -23z"/>
<path d="M593 2820 c0 -36 2 -50 4 -32 2 17 2 47 0 65 -2 17 -4 3 -4 -33z"/>
<path d="M1646 2730 c-34 -145 -70 -481 -62 -578 6 -76 41 -192 82 -274 l24
-48 -25 0 c-61 0 -119 45 -150 115 -7 17 -50 116 -95 220 -45 105 -102 243
-125 307 -80 217 -126 279 -220 294 -50 7 -121 -11 -134 -34 -5 -9 -30 -82
-56 -162 -26 -80 -50 -149 -54 -153 -4 -4 -45 6 -92 22 -46 16 -86 27 -89 25
-10 -10 34 -34 102 -56 49 -16 68 -27 68 -39 0 -15 -3 -15 -37 2 -49 25 -113
26 -114 2 -2 -36 3 -69 20 -121 17 -51 17 -53 0 -62 -45 -25 -27 -82 31 -95
15 -3 36 -16 47 -28 18 -20 21 -41 26 -197 7 -192 23 -309 63 -445 33 -116 57
-160 114 -216 64 -62 104 -72 277 -67 117 3 145 7 183 25 58 29 140 113 176
183 16 30 35 61 41 68 7 7 13 20 13 28 0 8 9 40 19 72 11 31 24 95 31 142 6
47 13 95 16 107 l4 23 40 -29 c55 -40 203 -87 570 -180 173 -44 325 -83 336
-87 21 -5 22 -2 28 103 4 59 9 131 12 158 l6 50 -36 2 c-19 1 -75 19 -123 41
-48 22 -113 47 -143 57 -30 10 -78 26 -105 36 -28 11 -59 19 -69 19 -11 0 -34
11 -52 25 -18 14 -43 25 -55 25 -29 0 -141 30 -154 41 -5 5 -17 9 -27 9 -9 0
-33 9 -53 20 -20 11 -48 20 -64 20 -20 0 -34 8 -46 26 -9 15 -22 23 -30 20 -8
-3 -23 7 -35 24 -12 17 -28 30 -36 30 -8 0 -14 3 -14 6 0 13 36 33 60 34 l25
0 -27 14 c-74 39 -89 52 -98 86 -12 42 -13 97 -2 104 4 2 34 -12 66 -31 32
-20 119 -57 194 -83 206 -72 229 -84 219 -120 -3 -11 0 -23 6 -27 29 -18 149
-34 292 -40 202 -7 225 1 268 92 16 33 60 112 98 175 76 128 90 169 65 189
-16 13 -70 11 -121 -4 -11 -3 8 8 41 25 34 17 84 33 111 37 46 5 51 3 71 -22
12 -15 22 -39 22 -52 0 -18 5 -24 18 -21 10 2 16 11 14 21 -2 11 4 17 16 17
10 0 29 12 43 26 13 14 55 48 93 75 l70 49 -90 0 c-49 0 -170 7 -269 15 -99 8
-301 21 -450 30 -148 8 -295 17 -325 20 -30 2 -111 7 -180 10 -69 3 -150 8
-181 11 l-57 6 -26 -112z m1014 -166 c-86 -49 -210 -94 -258 -94 l-37 1 29 16
c17 9 53 21 80 28 59 15 183 59 193 68 3 4 13 7 22 7 9 0 -4 -12 -29 -26z
m-1697 -112 c3 -4 -1 -25 -9 -47 -89 -252 -81 -696 15 -902 24 -50 29 -69 20
-79 -8 -10 -16 -11 -30 -3 -108 57 -163 526 -99 835 18 90 48 193 50 169 0 -5
8 1 18 13 18 23 28 27 35 14z m45 -139 c-5 -20 -11 -60 -13 -87 -1 -28 -8
-100 -15 -161 -12 -110 -8 -256 9 -325 5 -19 24 -81 42 -138 26 -82 30 -105
20 -115 -30 -29 -93 95 -116 228 -21 121 -22 387 -2 475 21 87 53 160 71 160
12 0 13 -7 4 -37z m129 -15 c-8 -23 -21 -70 -28 -103 l-13 -60 -7 45 c-4 27
-2 47 3 49 6 2 4 7 -3 12 -10 6 -11 11 -3 17 6 4 21 27 33 50 28 54 37 49 18
-10z m-2 -288 c4 -16 3 -35 -2 -42 -4 -7 -17 -40 -28 -73 -16 -49 -24 -60 -42
-61 -24 -1 -31 10 -13 21 13 8 2 215 -13 233 -8 10 -7 16 4 23 18 12 85 -59
94 -101z m55 10 c0 -38 -4 -50 -15 -50 -11 0 -15 12 -15 50 0 38 4 50 15 50
11 0 15 -12 15 -50z m-180 -72 c0 -32 -3 -39 -10 -28 -13 20 -13 70 0 70 6 0
10 -19 10 -42z m145 -184 l27 -46 -22 -22 c-13 -11 -20 -16 -17 -10 5 9 -1 44
-18 102 -11 35 1 26 30 -24z"/>
<path d="M7790 2787 c-3 -2 -102 -7 -220 -10 -927 -23 -1601 -37 -1975 -41
-468 -5 -885 -20 -1025 -36 -238 -29 -654 -20 -930 20 -69 10 -126 17 -128 15
-2 -2 27 -19 65 -39 96 -51 193 -126 298 -232 104 -104 145 -159 173 -229 141
-355 199 -452 315 -528 108 -70 146 -81 282 -81 83 -1 128 4 145 13 26 15 249
18 533 8 l137 -5 0 26 c0 15 -5 45 -10 67 -5 22 -7 41 -5 44 3 2 24 -2 47 -10
24 -7 86 -16 137 -19 l95 -5 0 -150 c1 -164 8 -191 59 -229 24 -18 46 -22 142
-24 190 -6 643 41 704 72 41 22 76 66 97 125 10 28 21 51 24 51 4 0 13 -26 20
-57 46 -208 193 -470 315 -562 22 -16 54 -41 70 -54 52 -42 192 -107 266 -122
89 -19 135 -19 229 0 41 9 102 20 135 25 133 21 256 81 349 172 33 32 58 60
55 62 -2 3 -85 -4 -184 -14 -225 -24 -391 -26 -443 -5 -95 40 -130 114 -211
440 -43 171 -65 288 -59 305 2 7 44 12 108 14 58 2 119 9 135 16 17 7 62 16
100 20 39 5 111 14 160 20 50 6 106 8 126 5 55 -9 147 11 186 41 30 22 46 27
106 28 89 2 138 26 196 93 70 81 108 224 91 338 -4 28 -8 39 -9 25 -1 -20 -3
-22 -11 -10 -7 11 -8 3 -4 -27 7 -43 -3 -159 -13 -150 -2 3 -7 54 -10 114 -3
59 -9 112 -14 117 -15 17 -20 -19 -10 -80 5 -32 5 -61 1 -64 -4 -3 -10 -14
-14 -25 -3 -11 -16 -31 -27 -45 l-20 -25 7 25 c6 23 6 23 -10 7 -22 -21 -40
-22 -57 -1 -11 14 -15 13 -31 -8 -23 -30 -25 -56 -3 -38 25 21 31 1 7 -23 -19
-18 -25 -20 -42 -9 -31 19 -80 16 -80 -6 0 -10 6 -24 13 -31 10 -11 9 -13 -2
-9 -7 2 -24 23 -36 47 -46 85 -42 266 6 350 11 19 17 40 14 49 -4 10 0 12 11
8 9 -3 27 3 41 14 14 11 33 20 42 19 10 0 8 -4 -7 -10 -13 -5 -29 -15 -35 -22
-31 -34 -45 -54 -51 -74 -6 -19 -3 -23 12 -23 15 0 19 -5 15 -20 -5 -19 -6
-20 -19 -3 -13 17 -13 17 -14 0 0 -10 -4 -15 -10 -12 -5 3 -10 -1 -10 -9 0 -8
5 -18 11 -21 7 -5 6 -12 -4 -23 -8 -10 -15 -34 -15 -56 -1 -30 3 -39 18 -43
11 -3 20 -9 20 -14 0 -5 7 -9 15 -9 10 0 15 10 15 27 0 21 3 24 12 15 19 -19
46 -14 53 11 16 57 39 97 56 97 28 0 69 22 69 37 0 7 -9 18 -19 25 -10 6 -17
18 -14 25 3 7 0 13 -7 13 -7 0 -10 6 -7 14 3 8 1 17 -6 20 -7 2 -4 5 7 5 25 1
4 27 -29 35 -14 4 -25 11 -25 17 0 6 9 8 20 4 11 -4 20 -2 20 4 0 6 -4 11 -10
11 -5 0 -10 5 -10 10 0 22 45 8 89 -27 l46 -38 -26 35 c-14 19 -48 49 -74 65
-43 27 -57 30 -124 30 -42 0 -91 -4 -108 -9 l-33 -8 0 51 0 51 78 1 c102 1
153 16 62 18 -36 1 -144 4 -240 7 -96 3 -177 4 -180 1z m170 -322 c0 -296 -11
-427 -39 -458 -26 -31 -49 -39 -72 -26 -24 12 -23 18 15 124 33 91 36 236 7
317 -26 70 -34 145 -26 218 5 42 11 60 21 60 11 0 14 -25 14 -129 0 -72 4
-132 8 -135 5 -3 17 5 28 17 15 18 20 41 22 115 3 60 -1 104 -9 123 -11 27
-16 30 -43 26 -33 -5 -66 7 -66 23 0 6 32 10 70 10 l70 0 0 -285z m47 253 c-3
-7 -5 -2 -5 12 0 14 2 19 5 13 2 -7 2 -19 0 -25z m30 -5 c-3 -10 -5 -4 -5 12
0 17 2 24 5 18 2 -7 2 -21 0 -30z m-480 -25 c-2 -13 -4 -5 -4 17 -1 22 1 32 4
23 2 -10 2 -28 0 -40z m30 5 c-3 -10 -5 -2 -5 17 0 19 2 27 5 18 2 -10 2 -26
0 -35z m-2367 -19 c0 -8 -5 -12 -10 -9 -6 4 -8 11 -5 16 9 14 15 11 15 -7z
m-595 -49 c0 -30 -5 -50 -12 -52 -10 -4 -13 11 -13 52 0 41 3 56 13 53 7 -3
12 -23 12 -53z m632 33 c-3 -8 -6 -5 -6 6 -1 11 2 17 5 13 3 -3 4 -12 1 -19z
m-587 -18 c0 -16 -4 -30 -10 -30 -5 0 -10 14 -10 30 0 17 5 30 10 30 6 0 10
-13 10 -30z m538 -2 c7 -7 12 -43 13 -87 1 -84 12 -177 22 -187 4 -4 16 1 27
11 16 14 20 34 23 114 2 53 3 -46 2 -219 -2 -173 -7 -328 -12 -345 -7 -22 -24
-37 -66 -59 -58 -30 -134 -41 -130 -19 32 161 36 205 38 478 3 284 4 290 25
307 26 21 41 23 58 6z m79 -40 c-3 -8 -6 -5 -6 6 -1 11 2 17 5 13 3 -3 4 -12
1 -19z m2477 -39 c54 -47 91 -114 100 -179 6 -42 4 -40 -23 29 -34 84 -96 155
-142 165 -35 7 -39 26 -5 26 13 0 43 -18 70 -41z m-1948 -57 c87 -67 122 -126
138 -237 l5 -40 -18 50 c-57 152 -101 207 -191 238 -33 12 -48 22 -41 26 21
13 56 1 107 -37z m1714 17 c0 -5 5 -7 10 -4 6 4 -1 -10 -15 -31 -35 -52 -55
-125 -56 -213 -1 -69 -2 -72 -9 -31 -13 81 15 206 57 252 10 11 12 18 5 18 -7
0 -12 5 -12 10 0 6 5 10 10 10 6 0 10 -5 10 -11z m765 1 c-3 -5 -12 -10 -18
-10 -7 0 -6 4 3 10 19 12 23 12 15 0z m-3356 -42 c81 -53 134 -131 150 -220 6
-34 8 -64 6 -67 -3 -2 -5 1 -5 8 0 7 -14 47 -31 89 -35 88 -83 152 -133 176
-43 20 -67 21 -40 1 14 -11 15 -14 4 -15 -14 0 0 -10 57 -41 27 -14 53 -107
33 -119 -6 -4 -10 -16 -9 -26 2 -11 0 -25 -5 -33 -6 -9 -5 -12 2 -7 7 4 13
-11 18 -41 4 -27 12 -52 18 -56 7 -6 4 -7 -6 -3 -14 4 -18 0 -18 -19 0 -13
-11 -37 -25 -52 -20 -23 -26 -25 -34 -14 -8 12 -12 12 -25 -2 -28 -28 -56 -31
-72 -8 -21 29 -35 26 -61 -11 -18 -26 -20 -35 -10 -46 10 -13 12 -13 15 1 3
17 23 23 35 10 10 -10 -42 -53 -64 -53 -10 0 -19 4 -19 9 0 16 -61 19 -76 4
-12 -12 -14 -12 -14 3 0 13 -3 15 -11 7 -12 -12 -3 -53 12 -53 5 0 9 -7 9 -15
0 -15 42 -48 67 -51 21 -3 15 6 -12 16 -19 7 -24 16 -23 35 2 22 6 25 23 19
11 -5 48 -8 82 -7 35 0 61 -3 58 -6 -2 -4 5 -14 16 -21 10 -8 19 -20 19 -27 0
-38 79 15 127 85 41 59 59 118 42 138 -6 8 -8 14 -5 14 4 0 2 10 -5 21 -9 17
-8 23 2 30 11 7 12 11 1 17 -10 7 -10 11 2 21 26 22 36 3 32 -67 -6 -127 -76
-246 -169 -291 -54 -26 -137 -27 -192 -2 -46 20 -105 82 -133 138 -55 109 -39
325 31 417 20 26 23 36 14 45 -9 10 -8 16 8 27 18 13 20 13 23 0 3 -13 10 -12
46 9 24 14 51 25 62 24 13 0 9 -5 -13 -15 -18 -8 -33 -20 -33 -28 0 -8 -8 -13
-17 -12 -13 1 -20 -9 -24 -34 -4 -19 -7 -27 -8 -17 -1 15 -3 16 -14 5 -7 -7
-16 -21 -20 -30 -5 -14 0 -16 28 -14 l33 4 -15 -36 c-16 -38 -43 -71 -43 -52
0 7 -6 6 -15 -4 -8 -8 -15 -19 -15 -24 0 -6 -5 -12 -12 -14 -6 -2 -13 -24 -14
-48 -2 -36 2 -49 23 -68 31 -28 55 -25 64 8 4 14 7 18 8 8 1 -14 6 -15 31 -8
39 11 60 33 55 57 -2 11 7 31 21 46 13 14 24 31 24 37 0 8 10 9 29 5 16 -3 32
-2 35 3 3 5 22 13 41 16 42 8 44 24 9 60 -15 14 -23 26 -19 26 5 0 0 9 -10 20
-10 11 -14 20 -9 20 5 0 2 5 -6 10 -13 8 -12 10 3 10 38 0 2 42 -45 54 -38 9
-36 27 2 20 31 -7 43 9 15 20 -8 3 -15 10 -15 16 0 22 48 8 109 -32z m2834
-18 c6 -28 5 -46 -2 -53 -8 -8 -11 -6 -11 6 0 9 -5 17 -11 17 -6 0 -9 6 -6 14
3 7 -1 23 -8 34 -16 22 -12 31 13 28 11 -2 20 -18 25 -46z m-2219 -12 c4 6 12
12 18 12 6 0 -6 -18 -27 -41 -20 -22 -45 -62 -56 -87 -26 -59 -37 -197 -20
-243 7 -19 17 -47 22 -64 8 -26 7 -28 -7 -13 -27 27 -46 153 -34 231 11 70 41
147 66 168 11 9 11 15 3 25 -9 11 -8 18 2 30 12 15 14 14 19 -7 4 -16 8 -20
14 -11z m273 -46 c1 -29 -14 -55 -27 -47 -5 3 -6 13 -3 23 2 10 -3 24 -11 31
-24 20 -19 28 12 23 21 -3 27 -9 29 -30z m1440 -52 c1 -47 5 -136 7 -197 l5
-113 -23 0 c-23 0 -970 -55 -1093 -63 l-63 -5 0 209 c0 159 3 211 13 214 14 4
993 41 1087 40 l64 0 3 -85z m1083 80 c0 -5 -2 -10 -4 -10 -3 0 -8 5 -11 10
-3 6 -1 10 4 10 6 0 11 -4 11 -10z m-572 -92 c3 -21 0 -26 -11 -22 -11 4 -15
-5 -15 -41 -2 -65 -9 -84 -38 -91 -19 -5 -30 0 -49 22 -14 16 -25 23 -25 17 0
-7 -5 -13 -10 -13 -7 0 -7 7 0 20 6 12 8 29 5 40 -3 10 1 33 10 50 12 23 22
30 45 30 16 0 32 5 35 11 4 5 17 9 28 7 16 -2 23 -11 25 -30z m-1945 2 c-3
-11 -9 -17 -15 -14 -5 3 -4 12 3 20 16 19 18 18 12 -6z m-296 -12 c-3 -8 -6
-5 -6 6 -1 11 2 17 5 13 3 -3 4 -12 1 -19z m291 -70 c2 -20 -1 -28 -12 -28 -9
0 -16 -7 -16 -15 0 -8 6 -15 13 -15 8 0 9 -2 1 -8 -6 -4 -15 -26 -19 -50 -5
-29 -15 -48 -30 -58 -22 -14 -27 -14 -54 2 -16 10 -28 21 -25 25 2 4 -2 11
-10 16 -28 16 -21 88 12 126 10 11 27 17 51 15 21 -1 36 3 39 10 2 7 14 12 26
10 15 -2 22 -11 24 -30z m1962 -8 c0 -10 -5 -22 -10 -25 -13 -8 -24 20 -16 41
8 20 26 9 26 -16z m-182 -86 c2 -16 8 -34 13 -41 7 -7 6 -14 0 -18 -16 -10
-60 46 -61 77 0 24 3 26 23 19 14 -5 23 -18 25 -37z m-1764 1 c6 -17 -2 -45
-14 -45 -5 0 -11 9 -15 20 -11 33 16 57 29 25z m1651 -30 c7 -29 7 -29 -8 -10
-9 11 -17 29 -17 40 0 27 17 7 25 -30z m939 -26 c-31 -55 -91 -99 -138 -99
-32 0 -91 23 -101 41 -6 9 -3 10 10 5 14 -5 15 -4 7 7 -6 7 -9 22 -7 32 2 11
4 22 4 25 1 2 6 -1 13 -8 7 -7 30 -12 52 -12 32 0 45 -6 62 -27 l22 -28 30 28
c16 16 38 47 48 69 10 22 20 36 22 29 2 -6 -9 -33 -24 -62z m-774 21 c0 -5 -4
-10 -10 -10 -5 0 -10 5 -10 10 0 6 5 10 10 10 6 0 10 -4 10 -10z m-2080 -29
c0 -5 10 -11 23 -13 17 -2 21 -9 19 -27 -1 -13 3 -30 9 -37 18 -22 0 -35 -20
-15 -10 10 -23 20 -28 22 -13 5 -24 79 -12 79 5 0 9 -4 9 -9z m250 1 c0 -5 -7
-9 -15 -9 -8 0 -15 4 -15 9 0 4 7 8 15 8 8 0 15 -4 15 -8z m1981 -25 c-10 -9
-11 -8 -5 6 3 10 9 15 12 12 3 -3 0 -11 -7 -18z m-11 -20 c0 -2 -15 -16 -32
-33 l-33 -29 29 33 c28 30 36 37 36 29z m-165 -17 c14 12 52 2 59 -15 3 -8 -1
-18 -7 -23 -19 -15 -81 9 -85 33 -3 16 -1 18 9 8 8 -8 17 -9 24 -3z m-1945
-14 c0 -11 -19 -15 -25 -6 -3 5 1 10 9 10 9 0 16 -2 16 -4z m177 -75 c-14 -21
-41 -49 -59 -62 -26 -18 -22 -11 20 34 28 30 52 61 52 68 0 7 3 9 6 6 4 -4 -5
-24 -19 -46z m-227 -33 c0 -8 3 -9 11 -1 17 17 74 0 74 -22 0 -15 -6 -20 -25
-18 -40 2 -56 8 -74 25 -20 21 -20 28 -1 28 8 0 15 -5 15 -12z"/>
<path d="M4960 2191 c0 -5 5 -13 10 -16 6 -3 10 -2 10 4 0 5 -4 13 -10 16 -5
3 -10 2 -10 -4z"/>
<path d="M4920 2102 c0 -18 5 -32 10 -32 6 0 8 11 4 28 -10 39 -14 40 -14 4z"/>
<path d="M4574 2038 c14 -59 26 -80 42 -74 9 3 20 6 25 6 5 0 9 12 9 26 0 14
-4 23 -10 19 -5 -3 -10 1 -10 10 0 9 -6 15 -12 12 -7 -2 -22 3 -32 12 -18 15
-19 15 -12 -11z"/>
<path d="M572 2700 c0 -14 2 -19 5 -12 2 6 2 18 0 25 -3 6 -5 1 -5 -13z"/>
<path d="M577 2634 c-18 -24 -18 -24 8 -24 26 0 28 4 17 32 -6 14 -9 13 -25
-8z"/>
<path d="M3190 2613 c-74 -25 -176 -118 -247 -223 -79 -117 -173 -363 -153
-401 6 -11 9 -23 6 -27 -6 -10 -33 -177 -46 -282 -22 -184 -2 -457 50 -690 6
-25 13 -61 16 -80 10 -58 72 -219 119 -307 40 -76 128 -197 171 -235 62 -54
188 -98 282 -98 115 0 306 21 372 40 134 39 269 148 348 280 l43 73 -25 26
c-64 67 -106 211 -180 626 -60 330 -97 489 -157 669 -119 359 -275 581 -443
631 -62 19 -99 18 -156 -2z m36 -333 c113 -43 232 -241 288 -482 43 -182 57
-352 45 -552 -13 -208 -56 -378 -130 -505 -42 -73 -93 -126 -111 -115 -6 4 -8
3 -5 -3 10 -17 -43 -38 -93 -37 -53 0 -146 47 -134 66 4 6 3 8 -3 5 -5 -3 -19
6 -31 21 -12 15 -33 41 -47 58 -14 18 -25 39 -25 48 0 9 -4 16 -9 16 -15 0
-86 194 -109 295 -62 270 -58 616 8 855 43 152 121 279 199 320 40 21 114 26
157 10z"/>
<path d="M3106 2246 c-22 -8 -49 -24 -60 -36 l-21 -21 38 17 c30 14 40 15 50
5 9 -10 8 -11 -8 -6 -19 6 -19 6 -3 -8 16 -13 15 -16 -17 -47 -151 -146 -218
-610 -141 -970 47 -219 112 -359 205 -441 42 -37 57 -56 51 -64 -6 -7 -7 -15
-4 -18 4 -3 -5 -9 -20 -13 -43 -10 -19 -24 43 -24 48 0 65 5 99 29 56 42 105
109 142 197 31 75 33 97 8 77 -7 -6 -22 -7 -33 -3 -11 4 -25 5 -31 3 -25 -9
-98 247 -74 262 6 3 8 11 5 16 -4 5 -1 9 5 9 8 0 10 9 6 25 -12 46 8 25 79
-82 39 -59 75 -108 82 -110 18 -6 34 91 40 248 l6 146 -68 6 c-38 4 -73 11
-78 16 -6 6 -12 36 -15 67 l-5 56 67 64 68 65 -26 99 c-14 54 -40 131 -58 170
-27 62 -33 70 -44 56 -16 -23 -70 -196 -85 -273 -6 -35 -13 -63 -16 -63 -2 0
-15 7 -28 16 -24 16 -25 20 -25 136 0 119 0 119 23 112 12 -4 25 -11 28 -16 4
-6 9 -5 12 3 5 12 8 11 17 -1 10 -13 11 -13 7 2 -3 9 -2 18 3 20 5 2 10 10 12
18 2 8 5 17 8 20 3 3 13 17 23 33 16 25 16 29 1 58 -20 39 -93 113 -131 132
-45 24 -94 28 -137 13z m44 -185 c0 -3 -9 -21 -21 -40 -30 -49 -59 -132 -58
-166 1 -17 -6 -66 -15 -110 -8 -44 -15 -99 -16 -122 0 -23 -5 -54 -12 -68 -23
-52 28 -434 61 -454 5 -4 20 -34 34 -69 14 -34 40 -83 57 -108 22 -33 26 -45
14 -40 -26 10 26 -55 64 -79 30 -19 35 -44 12 -68 -16 -18 -68 10 -121 64
-102 106 -163 258 -195 486 -22 161 -15 395 15 508 23 88 82 219 111 250 17
19 70 31 70 16z m-10 -402 c0 -9 -7 -22 -15 -29 -13 -11 -15 -7 -15 26 0 22
-3 50 -6 64 -4 20 -1 18 15 -10 11 -19 20 -42 21 -51z m118 -2 c6 -5 12 -6 12
-2 0 16 41 -30 57 -62 8 -19 18 -31 21 -28 3 2 11 0 19 -6 17 -15 17 -103 -1
-118 -7 -6 -16 -32 -20 -58 -9 -68 -42 -130 -72 -137 -33 -9 -90 2 -105 20 -6
8 -9 24 -6 36 10 38 -3 69 -27 66 -20 -3 -21 2 -24 74 -3 74 -2 76 19 71 20
-6 21 -3 17 33 -3 21 -8 47 -12 56 -6 12 3 24 34 47 40 29 58 31 88 8z m-49
-499 c-1 -24 -5 -70 -9 -103 l-7 -60 -2 50 c0 28 -4 74 -7 103 -6 44 -4 52 10
52 12 0 16 -9 15 -42z"/>
<path d="M3212 1568 c3 -44 22 -62 33 -29 8 28 -4 71 -22 71 -10 0 -13 -11
-11 -42z"/>
<path d="M3175 1520 c-18 -29 -2 -150 20 -150 17 0 25 23 25 76 0 63 -26 105
-45 74z"/>
<path d="M3227 1384 c-12 -12 -8 -59 7 -79 13 -18 14 -18 24 2 18 34 -8 99
-31 77z"/>
<path d="M3110 641 c0 -6 4 -13 10 -16 6 -3 7 1 4 9 -7 18 -14 21 -14 7z"/>
<path d="M8346 2575 c3 -8 22 -26 42 -40 l37 -27 -27 26 c-16 14 -28 29 -28
34 0 6 -7 12 -14 15 -10 4 -13 1 -10 -8z"/>
<path d="M8381 2264 c0 -11 3 -14 6 -6 3 7 2 16 -1 19 -3 4 -6 -2 -5 -13z"/>
<path d="M8130 2234 c-1 -43 38 -92 53 -66 6 10 -7 44 -15 40 -4 -2 -14 6 -22
17 -9 11 -16 15 -16 9z"/>
</g>
</svg>
